<svg version="1.1" id="Layer_1" xmlns="http://www.w3.org/2000/svg" xmlns:xlink="http://www.w3.org/1999/xlink" x="0px" y="0px"
	 width="100%" viewBox="0 0 1024 1024" enable-background="new 0 0 1024 1024" xml:space="preserve">
<path fill="#002c5f" opacity="1.000000" stroke="none" 
	d="
M637.818359,408.258362 
	C646.659790,420.405396 648.903320,434.105835 649.246216,448.267761 
	C649.492615,458.440521 650.451477,468.521637 652.294495,478.510834 
	C654.487671,490.397919 660.002258,500.385284 669.565735,508.016968 
	C673.738098,511.346558 676.278870,522.469910 674.145752,527.093994 
	C673.666321,528.133362 672.828430,528.609131 671.826904,528.740356 
	C670.512512,528.912598 669.173767,528.957703 667.845520,528.957336 
	C626.860535,528.946289 585.875549,528.957642 544.890686,528.877747 
	C534.399536,528.857300 523.909241,528.448303 513.417908,528.417297 
	C510.017548,528.407227 508.904816,527.186890 508.628082,523.764832 
	C508.070282,516.866699 509.549683,511.577942 515.383728,506.850189 
	C528.101196,496.544342 531.412964,481.752075 532.713623,466.283813 
	C533.702209,454.525818 533.338684,442.607666 535.742798,431.025574 
	C539.780945,411.571136 551.016907,397.590881 569.560181,390.155304 
	C573.748169,388.475922 575.790527,386.499573 576.840088,382.120697 
	C579.484314,371.088928 590.367188,366.544159 599.784119,372.101776 
	C604.155701,374.681763 606.305542,378.858856 606.980530,383.561676 
	C607.416809,386.601532 608.860107,387.748901 611.429749,388.673950 
	C622.050537,392.497284 630.755127,398.988403 637.818359,408.258362 
M588.905029,456.105743 
	C581.059937,457.584717 575.787415,463.080536 575.236145,470.353546 
	C574.576660,479.054871 578.846924,485.990112 586.306580,488.332550 
	C593.724609,490.661926 601.803345,487.774963 605.950073,481.244659 
	C609.507324,475.642792 609.325806,469.969208 606.099548,464.286713 
	C602.482666,457.916199 596.778198,455.667236 588.905029,456.105743 
z"/>
<path fill="#002c5f" opacity="1.000000" stroke="none" 
	d="
M537.857971,403.856567 
	C530.039429,415.654938 525.981567,428.270355 525.173645,442.078369 
	C524.523315,453.192810 523.219421,464.267731 522.355042,475.371796 
	C522.112305,478.490417 520.898621,479.708038 517.685181,479.683105 
	C493.199524,479.493286 468.712219,479.312714 444.227051,479.439514 
	C439.273224,479.465149 437.698700,478.179810 437.724518,473.007782 
	C437.826813,452.498627 421.566833,437.018890 400.848907,437.359283 
	C380.782227,437.688965 364.084686,454.620544 364.767181,474.369354 
	C364.917267,478.712219 363.267395,479.522583 359.601288,479.338013 
	C354.409790,479.076660 349.358551,478.156006 344.412933,476.639252 
	C337.717316,474.585846 334.367432,469.796478 333.807861,463.004700 
	C333.312927,456.997406 333.837311,451.006836 335.099792,445.132812 
	C337.539764,433.779968 344.002747,425.944122 354.835938,421.115692 
	C369.462830,414.596405 384.899048,411.502960 400.487091,408.909027 
	C406.332214,407.936371 411.099640,405.452545 415.540497,401.717987 
	C429.843811,389.689606 444.618561,378.369751 461.840912,370.631409 
	C471.909393,366.107391 482.604584,364.778748 493.366791,363.750824 
	C517.180359,361.476440 540.915833,362.825043 564.579834,365.829895 
	C567.581421,366.210999 570.910950,366.072327 573.607910,368.646606 
	C571.139221,372.514252 568.572693,376.208527 567.411987,380.593872 
	C567.011963,382.105347 565.725281,382.553955 564.459595,382.997375 
	C553.350525,386.889771 545.101196,394.446625 537.857971,403.856567 
M459.721497,387.236084 
	C449.701599,392.835236 440.369141,399.290253 432.892365,408.100647 
	C434.481659,410.088959 436.267548,409.638977 437.855194,409.635071 
	C462.483215,409.574280 487.121124,410.176941 511.707611,407.868195 
	C516.302002,407.436707 519.622253,405.834595 522.096619,402.102966 
	C525.424561,397.084076 529.376831,392.578186 533.678894,388.387787 
	C536.934814,385.216400 540.318054,382.175629 544.053528,378.695831 
	C529.175842,376.240601 514.899597,375.734833 500.603790,376.547913 
	C486.558746,377.346710 472.808197,379.648285 459.721497,387.236084 
z"/>
<path fill="#002c5f" opacity="1.000000" stroke="none" 
	d="
M617.991211,677.064331 
	C604.537903,676.881897 605.867188,678.645691 605.758118,665.249634 
	C605.716125,660.086975 605.628479,654.921021 605.765564,649.761902 
	C605.848633,646.638306 604.819458,645.195801 601.479797,645.263489 
	C594.154846,645.412109 586.821411,645.428528 579.497925,645.243408 
	C575.821716,645.150513 574.963013,646.914673 575.022095,650.130493 
	C575.150635,657.123291 574.886047,664.127930 575.175964,671.111389 
	C575.370850,675.806641 573.359924,677.353577 568.964844,677.101868 
	C565.145874,676.883179 561.305603,676.974426 557.475952,677.025085 
	C554.104065,677.069641 552.771973,675.522278 552.781860,672.144409 
	C552.852478,647.995300 552.852783,623.845703 552.781738,599.696594 
	C552.771973,596.369080 553.906494,594.732788 557.395935,594.834106 
	C561.722534,594.959717 566.057312,594.952576 570.384949,594.851685 
	C573.812439,594.771851 575.176636,596.382874 575.144592,599.698242 
	C575.075195,606.858948 575.283936,614.025818 575.061584,621.180298 
	C574.938232,625.153137 576.070679,626.920349 580.382935,626.726624 
	C587.031067,626.427856 593.710327,626.477600 600.362305,626.738586 
	C604.405273,626.897217 606.033264,625.647156 605.866516,621.399353 
	C605.592224,614.415894 606.020081,607.405579 605.772156,600.420105 
	C605.614319,595.974548 607.402832,594.461609 611.661560,594.730164 
	C615.643250,594.981201 619.654541,594.875427 623.648926,594.774353 
	C626.711243,594.696899 628.285156,595.795166 628.281128,599.086121 
	C628.250610,623.734985 628.271912,648.383972 628.337402,673.032776 
	C628.344727,675.795349 627.127808,677.011475 624.471924,677.021851 
	C622.473633,677.029663 620.475342,677.051086 617.991211,677.064331 
z"/>
<path fill="#002c5f" opacity="1.000000" stroke="none" 
	d="
M721.778564,664.307312 
	C723.213196,668.376038 725.555969,671.723999 726.113953,676.313293 
	C719.254211,677.770325 712.504150,677.176880 705.813843,676.771606 
	C703.291443,676.618835 702.835999,673.871704 702.053345,671.919373 
	C696.929871,659.138733 699.744263,661.437317 686.199341,661.201721 
	C680.044556,661.094666 673.883606,661.300537 667.730530,661.153442 
	C664.603333,661.078674 663.011047,662.282959 661.845825,665.243652 
	C656.340759,679.230591 660.294983,676.793091 644.339600,677.023682 
	C641.728821,677.061462 639.013916,677.635498 636.540833,676.279236 
	C635.383606,674.484985 636.549744,673.026428 637.172913,671.570496 
	C647.447693,647.567688 657.818726,623.605713 667.982056,599.555969 
	C669.435425,596.116821 671.360291,594.821350 675.064697,594.784729 
	C691.677063,594.620667 691.686035,594.522278 698.318726,609.894348 
	C706.093323,627.912842 713.848389,645.939819 721.778564,664.307312 
M676.251343,629.644714 
	C674.554871,634.228333 672.858459,638.811951 671.093079,643.581970 
	C677.781921,643.581970 683.757324,643.581970 690.272827,643.581970 
	C687.764893,634.791199 684.405457,627.038330 680.780029,618.221497 
	C679.050049,622.506104 677.759033,625.703430 676.251343,629.644714 
z"/>
<path fill="#002c5f" opacity="1.000000" stroke="none" 
	d="
M310.402649,677.009521 
	C308.473511,676.946350 306.938599,677.082947 305.608429,675.839600 
	C304.841980,673.789246 306.236450,672.086365 306.975616,670.347046 
	C317.126801,646.461548 327.383209,622.620667 337.500000,598.720703 
	C338.631866,596.046753 340.149017,594.731750 343.074402,594.798462 
	C347.732971,594.904663 352.397858,594.909973 357.055939,594.793457 
	C359.788086,594.725098 361.365356,595.968506 362.416992,598.365601 
	C373.511139,623.653748 384.638916,648.927185 395.737366,674.213440 
	C395.925598,674.642273 395.863342,675.181091 395.984131,676.259094 
	C388.938049,677.691284 381.883606,677.279480 374.864655,676.571167 
	C372.477234,676.330200 372.346863,673.714050 371.631348,671.932739 
	C367.340851,661.251099 367.360321,661.242920 355.917999,661.224670 
	C349.758820,661.214844 343.595306,661.340149 337.442169,661.143005 
	C334.127136,661.036926 332.399445,662.242065 331.112610,665.377930 
	C325.527802,678.987671 329.431610,676.732422 313.845764,676.974304 
	C312.847107,676.989807 311.848236,676.994019 310.402649,677.009521 
M352.209381,623.415649 
	C351.418884,622.066223 351.457916,620.182983 349.407501,619.242737 
	C346.517395,626.755737 343.662323,634.156006 340.835999,641.567261 
	C340.613403,642.151001 340.590820,642.810974 340.424927,643.707703 
	C346.946869,644.825806 353.152924,644.834961 359.921600,643.143616 
	C357.284393,636.364990 354.893982,630.220642 352.209381,623.415649 
z"/>
<path fill="#002c5f" opacity="1.000000" stroke="none" 
	d="
M539.237549,614.240112 
	C536.297363,616.959167 533.978943,620.644165 530.838196,621.585510 
	C527.486023,622.590149 525.364563,618.008484 522.467285,616.194885 
	C514.945923,611.486633 504.611664,611.515808 497.462402,616.563110 
	C490.019836,621.817505 486.646729,632.196655 488.743683,642.038269 
	C492.826172,661.198730 515.917297,662.974548 525.574219,653.713196 
	C528.959717,650.466309 531.187256,650.677612 534.086243,653.982605 
	C536.160583,656.347412 538.638794,658.376160 541.049255,660.422424 
	C543.295471,662.329346 543.554993,664.014893 541.301147,666.184998 
	C527.871704,679.115540 511.906189,681.248779 494.921936,676.040283 
	C479.119202,671.194092 469.450134,660.022339 466.682617,643.568726 
	C463.444794,624.318909 471.254852,607.396667 486.581360,599.466187 
	C505.066315,589.901489 527.072266,592.516296 541.110840,605.474060 
	C545.824097,609.824463 541.906494,611.529175 539.237549,614.240112 
z"/>
<path fill="#000000" opacity="1.000000" stroke="none" 
	d="
M396.677155,502.799500 
	C382.137817,499.523590 372.709930,488.101990 372.814880,474.282379 
	C372.917236,460.812103 382.325958,449.199341 395.712067,446.541534 
	C406.981323,444.304016 416.651733,447.720001 423.649414,456.768494 
	C431.000336,466.273743 432.007751,477.020264 426.523926,487.742493 
	C421.426544,497.709167 412.853638,502.897125 401.561676,503.273590 
	C400.077972,503.323029 398.583221,503.041229 396.677155,502.799500 
z"/>
<path fill="#002c5f" opacity="1.000000" stroke="none" 
	d="
M431.000000,677.067322 
	C423.008423,677.049988 415.514801,676.921997 408.026093,677.059998 
	C404.309753,677.128479 402.640411,675.996033 402.661469,671.933777 
	C402.785889,647.961182 402.764465,623.987183 402.623383,600.014587 
	C402.600372,596.105713 403.964233,594.577515 407.842499,594.772583 
	C411.827972,594.973022 415.836334,594.941162 419.825439,594.780701 
	C423.460632,594.634583 424.786835,596.067444 424.772644,599.773865 
	C424.704468,617.576843 424.968842,635.381470 424.855804,653.183777 
	C424.827271,657.669739 426.552277,658.874573 430.780121,658.765442 
	C440.263062,658.520569 449.758453,658.797424 459.245636,658.654541 
	C462.810211,658.600952 464.389618,659.756592 464.314850,663.515503 
	C464.001617,679.258423 466.629761,676.778259 451.477509,677.046570 
	C444.820312,677.164490 438.159302,677.066406 431.000000,677.067322 
z"/>
<path fill="#000000" opacity="1.000000" stroke="none" 
	d="
M644.480286,346.565552 
	C652.168518,355.909729 655.472534,366.491241 656.353210,378.052765 
	C656.691406,382.493134 654.856689,383.958801 650.664124,383.956573 
	C646.670776,383.954529 644.754639,382.948822 644.684204,378.332825 
	C644.407166,360.195404 633.358582,345.913666 616.327026,341.090607 
	C614.427185,340.552612 612.429688,340.310547 610.460083,340.079651 
	C607.922791,339.782166 606.769409,338.646149 606.628235,335.910034 
	C606.240295,328.396240 607.203674,327.415588 614.652588,328.998108 
	C626.412170,331.496429 636.336121,337.184143 644.480286,346.565552 
z"/>
<path fill="#000000" opacity="1.000000" stroke="none" 
	d="
M572.425903,536.222229 
	C585.614807,535.998962 598.486267,535.998962 611.375000,535.998962 
	C610.798462,547.696655 597.363892,556.123840 585.905457,552.617920 
	C577.806702,550.140076 572.105835,543.457642 572.425903,536.222229 
z"/>
<path fill="#000000" opacity="1.000000" stroke="none" 
	d="
M606.549438,358.660645 
	C606.846680,348.617462 607.866760,347.963501 616.843506,352.151459 
	C628.296814,357.494843 634.084961,366.771393 635.321411,379.163635 
	C635.665100,382.608368 634.202026,384.194702 630.815186,383.998810 
	C627.848938,383.827209 623.993896,385.029083 623.938538,379.924988 
	C623.829346,369.845306 618.439331,363.948029 609.105652,361.178101 
	C607.934204,360.830505 606.926880,360.350128 606.549438,358.660645 
z"/>
</svg>